<svg xmlns="http://www.w3.org/2000/svg" width="64" height="64" enable-background="new 0 0 64 64" viewBox="0 0 64 64"><path fill="#2B2F64" d="M18.41,17.81h-6c-0.54,0-0.97,0.43-0.97,0.97v32.15c0,0.54,0.43,0.97,0.97,0.97h6
		c0.54,0,0.97-0.43,0.97-0.97V18.78C19.38,18.24,18.95,17.81,18.41,17.81z M17.44,49.96h-4.06V19.75h4.06V49.96z"/><rect width="4.06" height="30.21" x="13.38" y="19.75" fill="#FEDC7D"/><path fill="#2B2F64" d="M29.47,26h-6c-0.54,0-0.97,0.43-0.97,0.97v23.96c0,0.54,0.43,0.97,0.97,0.97h6c0.54,0,0.97-0.43,0.97-0.97
		V26.97C30.44,26.43,30.01,26,29.47,26z M28.5,49.96h-4.06V27.94h4.06V49.96z"/><rect width="4.06" height="22.02" x="24.44" y="27.94" fill="#54BFA0"/><path fill="#2B2F64" d="M40.53,34.19h-6.01c-0.53,0-0.97,0.44-0.97,0.97v15.77c0,0.54,0.44,0.97,0.97,0.97h6.01
		c0.54,0,0.97-0.43,0.97-0.97V35.16C41.5,34.63,41.07,34.19,40.53,34.19z M39.561,49.96h-4.07V36.13h4.07V49.96z"/><rect width="4.07" height="13.83" x="35.49" y="36.13" fill="#4FBEE6"/><path fill="#2B2F64" d="M51.59,42.38h-6.01c-0.53,0-0.97,0.44-0.97,0.97v7.58c0,0.54,0.44,0.97,0.97,0.97h6.01
		c0.54,0,0.97-0.43,0.97-0.97v-7.58C52.561,42.82,52.13,42.38,51.59,42.38z M50.621,49.96h-4.07v-5.64h4.07V49.96z"/><rect width="4.07" height="5.64" x="46.55" y="44.32" fill="#F26E62"/><path fill="#2B2F64" d="M63.51,58.51l-5.85-3.71c-0.3-0.19-0.67-0.2-0.98-0.03c-0.31,0.17-0.51,0.5-0.51,0.85v2.74H5.69V7.76h2.73
		c0.36,0,0.68-0.2,0.85-0.51c0.17-0.31,0.16-0.69-0.03-0.98l-3.7-5.85c-0.36-0.56-1.29-0.56-1.64,0L0.19,6.27
		C0,6.56-0.01,6.94,0.16,7.25c0.17,0.31,0.5,0.51,0.85,0.51h2.74v51.57c0,0.53,0.43,0.97,0.97,0.97h51.45v2.73
		c0,0.36,0.2,0.68,0.51,0.85c0.14,0.08,0.3,0.12,0.46,0.12c0.18,0,0.36-0.05,0.52-0.15l5.85-3.7c0.28-0.18,0.45-0.49,0.45-0.82
		C63.96,58.99,63.791,58.68,63.51,58.51z M2.78,5.81l1.94-3.06l1.94,3.06H2.78z M58.11,61.27v-3.89l3.06,1.95L58.11,61.27z"/><polygon fill="#F26E62" points="6.66 5.81 2.78 5.81 4.72 2.75"/><polygon fill="#FEDC7D" points="61.17 59.33 58.11 61.27 58.11 57.38"/></svg>